<?xml version="1.0" standalone="no"?>
<!DOCTYPE svg PUBLIC "-//W3C//DTD SVG 20010904//EN"
 "http://www.w3.org/TR/2001/REC-SVG-20010904/DTD/svg10.dtd">
<svg version="1.0" xmlns="http://www.w3.org/2000/svg"
 width="208.000000pt" height="242.000000pt" viewBox="0 0 208.000000 242.000000"
 preserveAspectRatio="xMidYMid meet">
<metadata>
Created by potrace 1.16, written by Peter Selinger 2001-2019
</metadata>
<g transform="translate(0.000000,242.000000) scale(0.100000,-0.100000)"
fill="#000000" stroke="none">
<path d="M975 2363 c17 -69 23 -139 15 -185 -10 -64 -10 -64 -76 -214 -85
-195 -92 -295 -31 -427 38 -80 60 -100 29 -27 -22 55 -26 80 -26 160 0 94 0
97 61 240 90 212 100 314 43 433 -11 23 -17 32 -15 20z"/>
<path d="M638 1289 c-175 -25 -302 -85 -328 -154 -18 -48 23 -330 65 -442 82
-217 263 -333 519 -333 165 0 286 45 386 142 47 46 69 59 150 87 121 42 200
84 260 138 65 58 83 100 78 178 -7 118 -84 187 -207 187 -33 0 -67 -5 -78 -11
-14 -8 -6 -10 40 -11 116 0 188 -65 189 -171 0 -58 -28 -107 -94 -159 -37 -30
-270 -171 -275 -166 -1 1 9 25 22 53 14 28 34 90 45 139 33 140 88 214 160
214 35 0 100 -55 100 -84 0 -48 -55 -107 -159 -171 -33 -21 -61 -40 -61 -42 0
-2 30 12 68 31 163 82 216 164 162 251 -55 89 -208 86 -255 -5 -9 -17 -15 -36
-13 -43 5 -24 -35 -164 -68 -234 -60 -133 -171 -223 -312 -252 -74 -15 -215
-13 -290 4 -228 54 -370 241 -407 539 l-8 58 39 -26 c94 -62 261 -96 468 -96
249 0 454 49 546 130 l25 22 -32 -22 c-90 -59 -235 -85 -468 -84 -144 1 -201
5 -285 23 -114 24 -225 72 -248 108 -13 21 -12 25 17 52 75 71 270 113 521
114 194 1 315 -16 408 -58 60 -27 61 -15 2 15 -59 30 -195 67 -295 79 -102 12
-302 13 -387 0z"/>
<path d="M198 810 c-109 -45 -181 -111 -193 -179 -16 -96 87 -216 258 -300
178 -88 349 -121 627 -121 265 0 447 33 605 110 87 42 169 108 199 161 16 27
10 24 -35 -22 -134 -133 -360 -193 -724 -192 -304 1 -490 35 -670 122 -109 53
-195 126 -220 185 -31 74 30 160 157 224 70 35 68 41 -4 12z"/>
<path d="M200 330 c88 -73 280 -153 448 -187 130 -26 365 -23 500 6 176 37
337 106 422 180 l35 31 -57 -34 c-66 -38 -208 -87 -321 -111 -335 -68 -743
-23 -997 110 l-65 35 35 -30z"/>
<path d="M1850 350 c-20 -7 -17 -8 20 -9 45 -1 141 -39 154 -60 12 -19 -15
-12 -80 20 -51 24 -73 29 -116 27 l-53 -3 1 -42 c1 -60 39 -106 109 -132 65
-25 94 -26 139 -7 37 15 58 59 49 98 -17 68 -147 131 -223 108z"/>
<path d="M1553 219 c-52 -15 -93 -64 -93 -109 0 -80 77 -121 188 -100 62 11
114 46 138 91 26 50 16 71 -40 87 -44 13 -57 12 -108 -2 -32 -9 -72 -16 -90
-16 l-33 1 30 17 c21 12 54 17 113 17 74 0 80 1 55 12 -33 14 -114 15 -160 2z"/>
</g>
</svg>
